<svg xmlns="http://www.w3.org/2000/svg" viewBox="0 0 850.7837 149.2783">
  <g id="full-rgb">
    <g>
      <g id="type">
        <path id="type_CompoundPathItem_" data-name="type &lt;CompoundPathItem&gt;" d="M101.0408,96.3164a15.31,15.31,0,0,1-5.3662-.9062,14.8731,14.8731,0,0,1-5.3662-4.1114L42.22,40.0039,32.6023,94.7832H6.3972L19.9177,17.4238a26.5761,26.5761,0,0,1,2.6485-7.9453A17.7368,17.7368,0,0,1,26.9568,4.042,17.1711,17.1711,0,0,1,32.6023.9756,20.5865,20.5865,0,0,1,38.8748,0a16.2916,16.2916,0,0,1,5.2959.9063,13.3712,13.3712,0,0,1,5.4365,4.1113L97.6961,56.3125l9.7568-54.7793H133.658l-13.8,77.2207a25.4009,25.4009,0,0,1-2.7178,7.9453,20.2969,20.2969,0,0,1-4.3906,5.5049,15.799,15.799,0,0,1-5.5762,3.1367A20.17,20.17,0,0,1,101.0408,96.3164Z" style="fill: #4b4b4d"/>
        <path id="type_CompoundPathItem_2" data-name="type &lt;CompoundPathItem&gt;" d="M239.59,70.8086l-22.999,23.9746H134.2127L150.8,1.5332h28.7138L167.2478,70.8086Z" style="fill: #4b4b4d"/>
        <path id="type_CompoundPathItem_3" data-name="type &lt;CompoundPathItem&gt;" d="M416.8884,70.8086,398.35,94.7832h-46.834a67.23,67.23,0,0,1-22.4414-3.624,55.4294,55.4294,0,0,1-17.7715-9.9658,46.1,46.1,0,0,1-11.709-15.0547,42.4523,42.4523,0,0,1-4.251-18.8867,40.7312,40.7312,0,0,1,4.251-18.6084,44.0855,44.0855,0,0,1,11.709-14.4961A53.4869,53.4869,0,0,1,329.075,4.8086a73.8531,73.8531,0,0,1,22.4414-3.2754h65.372L398.35,25.7861h-46.834a34.1742,34.1742,0,0,0-10.8721,1.6729,26.6179,26.6179,0,0,0-8.6426,4.67,21.98,21.98,0,0,0-5.7148,7.1777,20.2856,20.2856,0,0,0-2.0908,9.2,20.0239,20.0239,0,0,0,7.7363,16.169,27.1574,27.1574,0,0,0,8.7119,4.53,35.522,35.522,0,0,0,10.8721,1.6025Z" style="fill: #ed3439"/>
        <path id="type_CompoundPathItem_4" data-name="type &lt;CompoundPathItem&gt;" d="M461.6306,94.7832l17.4239-23.9746h32.1289q4.5278,0,7.875.2783-1.9527-2.5078-4.53-6.3418-2.58-3.832-4.9482-7.1787L492.8533,32.8955,449.0867,94.7832h-34.15l59.7969-84.3291a32.2754,32.2754,0,0,1,7.3877-7.248,21.4777,21.4777,0,0,1,22.2324-.209,28.5,28.5,0,0,1,7.457,7.457L570.074,94.7832Z" style="fill: #ed3439"/>
        <path id="type_CompoundPathItem_5" data-name="type &lt;CompoundPathItem&gt;" d="M712.6658,94.7832h-38.61L653.2869,70.1113H608.9617V94.7832H580.1091v-47.67h81.1231a21.4038,21.4038,0,0,0,11.29-2.7881q4.6-2.7861,4.6-7.666a9.0768,9.0768,0,0,0-4.1816-8.1543q-4.1807-2.7187-11.708-2.7188H580.1091L598.9265,1.5332h59.9356A96.9573,96.9573,0,0,1,675.31,2.9971,50.2845,50.2845,0,0,1,690.782,8.2236a33.23,33.23,0,0,1,11.5,10.1758q4.5279,6.4116,4.5293,16.4473a31.569,31.569,0,0,1-1.6719,10.3144,28.3336,28.3336,0,0,1-12.4756,15.4024,31.4062,31.4062,0,0,1-10.2451,3.833,66.286,66.286,0,0,1,5.2969,4.6006q2.9268,2.7889,7.8057,7.666Z" style="fill: #ed3439"/>
        <path id="type_CompoundPathItem_6" data-name="type &lt;CompoundPathItem&gt;" d="M809.4,38.75q17.1445,0,26.0654,6.3418,8.9194,6.3443,8.9209,19.166a35.054,35.054,0,0,1-2.2305,12.8233,22.6922,22.6922,0,0,1-7.1084,9.6181,34.3077,34.3077,0,0,1-12.4756,5.9932,69.2288,69.2288,0,0,1-18.1894,2.0908H717.5447l18.5381-23.9746h70.53q5.1548,0,7.5263-1.6025,2.3686-1.6011,2.37-5.2276,0-3.6225-2.37-5.1572-2.3715-1.5323-7.5263-1.5332H755.8758a55.0275,55.0275,0,0,1-15.6114-1.9512A31.3437,31.3437,0,0,1,729.3924,49.9a21.3834,21.3834,0,0,1-6.4122-8.4326,27.8392,27.8392,0,0,1-2.0908-10.9424,29.9571,29.9571,0,0,1,2.3-11.917,22.958,22.958,0,0,1,7.1094-9.13A34.9786,34.9786,0,0,1,742.7039,3.624a69.2083,69.2083,0,0,1,18.1894-2.0908h80.9844L823.3386,25.7861H758.6638q-5.0186,0-7.458,1.3946t-2.4384,5.0175q0,3.627,2.4384,5.0879,2.4375,1.4634,7.458,1.4639Z" style="fill: #ed3439"/>
      </g>
      <path id="fullLogo" d="M113.8245,127.3515q0-2.9649.8838-4.0557t3.3711-1.0918h12.542q2.4536,0,3.3369,1.0811t.8838,4.0664v11.4678q0,3.0073-.8838,4.0771t-3.3369,1.07h-2.0762l2.1445,5.3116h-2.8818l-1.9219-5.3116h-7.8066q-2.4873,0-3.3711-1.0908t-.8838-4.0566ZM127.3616,140.94h4.4951V125.1689H116.844V140.94h7.875l-1.87-5.0235,2.042-.9677Z" style="fill: #4b4b4d"/>
      <path id="fullLogo-2" data-name="fullLogo" d="M161.3069,122.204V140.94h13.2109V122.204h2.9854v16.6153q0,3.0073-.8838,4.0771t-3.3369,1.07H162.5247q-2.4712,0-3.3623-1.0908-.8936-1.0913-.8926-4.0566V122.204Z" style="fill: #4b4b4d"/>
      <path id="fullLogo-3" data-name="fullLogo" d="M196.6926,143.9667l9.8995-21.7627h3.2431l10.0713,21.7627h-3.3291l-2.3164-5.3535H201.9944l-2.3164,5.3535Zm6.5713-8.1328h9.7618l-4.89-11.1387Z" style="fill: #4b4b4d"/>
      <path id="fullLogo-4" data-name="fullLogo" d="M240.0042,143.9667V122.204h3.0371V140.94h13.7256v3.0263Z" style="fill: #4b4b4d"/>
      <path id="fullLogo-5" data-name="fullLogo" d="M277.1751,143.9667V122.204h3.0371v21.7627Z" style="fill: #4b4b4d"/>
      <path id="fullLogo-6" data-name="fullLogo" d="M310.8792,125.1689v18.7978h-3.02V125.1689h-8.2871V122.204h19.628v2.9649Z" style="fill: #4b4b4d"/>
      <path id="fullLogo-7" data-name="fullLogo" d="M344.1546,143.9667v-9.4912l-9.1963-12.2715h3.7568l7.0859,9.6973,6.795-9.6973h3.6884l-9.11,12.1885v9.5742Z" style="fill: #4b4b4d"/>
      <path id="fullLogo-8" data-name="fullLogo" d="M406.7425,122.204V140.94h13.2109V122.204h2.9853v16.6153q0,3.0073-.8837,4.0771t-3.337,1.07H407.96q-2.4711,0-3.3623-1.0908-.8935-1.0913-.8926-4.0566V122.204Z" style="fill: #4b4b4d"/>
      <path id="fullLogo-9" data-name="fullLogo" d="M462.0813,125.1689h-12.833v6.0742h11.4268q2.4185,0,3.31,1.07t.8926,4.0557v2.45q0,3.0073-.875,4.0771t-3.3281,1.07H450.0882q-2.47,0-3.3624-1.081t-.8925-4.0664v-.5967l2.8144-.7822v3.5H462.15v-6.5479H450.7581q-2.4713,0-3.3457-1.08-.876-1.081-.875-4.0664v-1.8945q0-2.9853.875-4.0664t3.3457-1.0811h9.6592a4.2714,4.2714,0,0,1,3.3369,1.0606,5.7475,5.7475,0,0,1,.9179,3.7168v.4521l-2.5908.8858Z" style="fill: #4b4b4d"/>
      <path id="fullLogo-10" data-name="fullLogo" d="M488.2708,143.9667V122.204h17.4658v2.9239H491.3079v6.0537h8.8183v2.8818h-8.8183v6.918h14.5664v2.9853Z" style="fill: #4b4b4d"/>
      <path id="fullLogo-11" data-name="fullLogo" d="M537.2971,122.204a17.9982,17.9982,0,0,1,4.1612.4024,7.3926,7.3926,0,0,1,2.8047,1.2861,9.2072,9.2072,0,0,1,2.7539,3.7881,13.5785,13.5785,0,0,1,1.0039,5.2715,14.5271,14.5271,0,0,1-.9864,5.4863,9.0735,9.0735,0,0,1-2.7714,3.84,7.3489,7.3489,0,0,1-2.7793,1.2763,17.7646,17.7646,0,0,1-4.1866.4121h-9.9853V122.204Zm-.4287,2.9649h-6.5195V140.94h6.5195q4.4093,0,6.2276-1.8535t1.8193-6.1348q0-4.1382-1.8535-5.961T536.8684,125.1689Z" style="fill: #4b4b4d"/>
      <path id="fullLogo-12" data-name="fullLogo" d="M612.6663,125.1689H600.09V140.94h12.5762v-5.4561l3.0371.7617v2.5733q0,3.0073-.875,4.0771t-3.3457,1.07H601.3255q-2.4713,0-3.3623-1.081-.8936-1.0811-.8926-4.0664V127.3515q0-2.9853.8926-4.0664.8905-1.081,3.3623-1.0811h10.1572q2.4711,0,3.3457,1.0713t.875,4.0762V129.41l-3.0371.68Z" style="fill: #4b4b4d"/>
      <path id="fullLogo-13" data-name="fullLogo" d="M634.3616,143.9667l9.8994-21.7627h3.2432l10.0713,21.7627h-3.3291l-2.3164-5.3535H639.6633l-2.3164,5.3535Zm6.5713-8.1328h9.7617l-4.89-11.1387Z" style="fill: #4b4b4d"/>
      <path id="fullLogo-14" data-name="fullLogo" d="M677.6731,143.9667V122.204h14.6182a3.7926,3.7926,0,0,1,2.9424.9991,4.7372,4.7372,0,0,1,.9,3.2216v4.8594a4.7,4.7,0,0,1-.9,3.2012,3.7929,3.7929,0,0,1-2.9424.999h-2.6592l8.2861,8.4824h-4.4951l-7.3769-8.4824H680.71v8.4824Zm13.4336-18.9414H680.71v7.6387h10.3965a1.9444,1.9444,0,0,0,1.5449-.4941,2.7554,2.7554,0,0,0,.4112-1.73V127.27a2.76,2.76,0,0,0-.42-1.74A1.9239,1.9239,0,0,0,691.1067,125.0253Z" style="fill: #4b4b4d"/>
      <path id="fullLogo-15" data-name="fullLogo" d="M734.1624,125.1689h-12.833v6.0742h11.4267q2.4185,0,3.3106,1.07t.8925,4.0557v2.45q0,3.0073-.875,4.0771t-3.3281,1.07H722.1692q-2.47,0-3.3623-1.081t-.8926-4.0664v-.5967l2.8145-.7822v3.5h13.5019v-6.5479H722.8391q-2.4711,0-3.3457-1.08t-.875-4.0664v-1.8945q0-2.9853.875-4.0664t3.3457-1.0811h9.6592a4.2714,4.2714,0,0,1,3.3369,1.0606,5.7475,5.7475,0,0,1,.918,3.7168v.4521l-2.5908.8858Z" style="fill: #4b4b4d"/>
      <path id="fullLogo-16" data-name="fullLogo" d="M850.7837,135.7411l-97.6316-4.93a.4121.4121,0,0,0-.4329.4116V140.26a.4121.4121,0,0,0,.4329.4116Z" style="fill: #4b4b4d"/>
      <path id="fullLogo-17" data-name="fullLogo" d="M0,135.7411l97.6317,4.9305a.4121.4121,0,0,0,.4329-.4116v-9.0377a.4121.4121,0,0,0-.4329-.4116Z" style="fill: #4b4b4d"/>
    </g>
  </g>
</svg>
